<svg width="67" height="66" viewBox="0 0 67 66" fill="none" xmlns="http://www.w3.org/2000/svg">
<path d="M5.087 64.3747V65.8466H0V58.2279H1.71921V64.3747H5.087Z" fill="#247CC0"/>
<path d="M6.19415 58.2279H7.91337V65.8466H6.19415V58.2279Z" fill="#247CC0"/>
<path d="M14.7775 65.8463C14.283 64.9749 13.7531 64.1153 13.1879 63.2557C12.6109 62.4078 12.0103 61.6071 11.3627 60.8417V65.8345H9.66699V58.2275H11.0683C11.3156 58.4748 11.5746 58.7692 11.869 59.1225C12.1634 59.4757 12.4578 59.8526 12.7639 60.2529C13.0701 60.6533 13.3763 61.0654 13.6706 61.5011C13.9768 61.925 14.2594 62.3372 14.5185 62.7375V58.2275H16.2259V65.8463H14.7775Z" fill="#247CC0"/>
<path d="M22.4787 65.8463C22.3256 65.599 22.1372 65.3281 21.937 65.0455C21.7251 64.7629 21.5013 64.4685 21.2541 64.1741C21.0068 63.8798 20.7595 63.5971 20.4886 63.3381C20.2296 63.0673 19.9588 62.8317 19.6997 62.6316V65.858H17.9805V58.2275H19.6997V61.089C20.1354 60.6297 20.5946 60.1352 21.0421 59.6406C21.5013 59.1342 21.9135 58.6632 22.3021 58.2275H24.3392C23.8211 58.8399 23.303 59.4404 22.7731 60.0056C22.2432 60.5709 21.6897 61.1479 21.1128 61.7249C21.7251 62.2312 22.3138 62.8317 22.8791 63.5383C23.4443 64.233 23.986 65.0102 24.5158 65.8463H22.4787Z" fill="#247CC0"/>
<path d="M25.5059 65.8463V58.2275H30.6517V59.6641H27.2251V61.1596H30.2749V62.5727H27.2251V64.4097H30.9108V65.8463H25.5059Z" fill="#247CC0"/>
<path d="M38.8475 62.0318C38.8475 62.6912 38.7416 63.2682 38.5414 63.7628C38.3412 64.2573 38.0468 64.6577 37.67 64.9874C37.2932 65.3054 36.8339 65.5526 36.2922 65.7175C35.7506 65.8823 35.1383 65.9648 34.4671 65.9648C34.1609 65.9648 33.7959 65.953 33.3837 65.9295C32.9716 65.9059 32.5712 65.847 32.1708 65.7646V58.3343C32.5712 58.2636 32.9833 58.2165 33.4073 58.1812C33.8312 58.1576 34.208 58.1459 34.5142 58.1459C35.1618 58.1459 35.7624 58.2165 36.2922 58.3696C36.8221 58.5109 37.2814 58.7464 37.6582 59.0644C38.035 59.3823 38.3294 59.7827 38.5414 60.2772C38.7416 60.7483 38.8475 61.337 38.8475 62.0318ZM33.8901 64.4457C33.9725 64.4575 34.0667 64.4575 34.1727 64.4575C34.2786 64.4575 34.4082 64.4575 34.5495 64.4575C35.4091 64.4575 36.045 64.2456 36.4571 63.8099C36.8692 63.3742 37.0812 62.7854 37.0812 62.02C37.0812 61.2193 36.881 60.6187 36.4924 60.2066C36.0921 59.7944 35.468 59.5943 34.6084 59.5943C34.4906 59.5943 34.3729 59.5943 34.2433 59.5943C34.1138 59.5943 33.996 59.606 33.8901 59.6178V64.4457Z" fill="#247CC0"/>
<path d="M45.6769 58.2275V59.6877H43.3807V65.8463H41.6614V59.6877H39.3652V58.2275H45.6769Z" fill="#247CC0"/>
<path d="M46.7842 65.8463V58.2275H51.93V59.6641H48.5034V61.1596H51.5532V62.5727H48.5034V64.4097H52.1891V65.8463H46.7842Z" fill="#247CC0"/>
<path d="M56.9217 66.0001C55.6853 66.0001 54.7432 65.6586 54.0838 64.9639C53.4362 64.2691 53.1064 63.2918 53.1064 62.0318C53.1064 61.3959 53.2006 60.8425 53.4008 60.3479C53.601 59.8533 53.8719 59.4294 54.2133 59.0997C54.5548 58.7582 54.967 58.4992 55.4498 58.3225C55.9208 58.1459 56.4389 58.0635 57.0041 58.0635C57.3221 58.0635 57.6164 58.087 57.8873 58.1341C58.1463 58.1812 58.3818 58.2401 58.582 58.299C58.7822 58.3579 58.9471 58.4285 59.0766 58.4874C59.2061 58.558 59.3003 58.6052 59.3592 58.6405L58.8646 60.03C58.6291 59.9004 58.3583 59.7945 58.0404 59.712C57.7342 59.6296 57.3692 59.5825 56.9806 59.5825C56.7215 59.5825 56.4625 59.6296 56.2034 59.712C55.9561 59.7945 55.7324 59.9358 55.5322 60.136C55.332 60.3361 55.1789 60.5834 55.0612 60.8896C54.9434 61.1957 54.8845 61.5726 54.8845 62.0083C54.8845 62.3615 54.9199 62.6912 55.0023 62.9974C55.0847 63.3036 55.2025 63.5626 55.3791 63.7864C55.5557 64.0101 55.7795 64.1749 56.0503 64.3045C56.3329 64.434 56.6626 64.4929 57.063 64.4929C57.3103 64.4929 57.534 64.4811 57.7342 64.4458C57.9344 64.4222 58.111 64.3869 58.2641 64.3398C58.4172 64.3045 58.5585 64.2574 58.6762 64.1985C58.794 64.1514 58.9 64.1043 58.9942 64.0572L59.4652 65.4349C59.2179 65.5762 58.8764 65.7175 58.4407 65.8353C58.005 65.9413 57.4987 66.0001 56.9217 66.0001Z" fill="#247CC0"/>
<path d="M65.1765 58.2275H66.8957V65.8463H65.1765V62.608H62.2915V65.8463H60.5723V58.2275H62.2915V61.1479H65.1765V58.2275Z" fill="#247CC0"/>
<path d="M21.8441 11.1818C21.9854 10.0278 22.4565 8.96801 23.1512 8.1084L21.3967 6.2832L15.9917 9.4037C15.3676 9.76874 14.8024 10.4399 14.4492 11.1818H21.8441Z" fill="#262262"/>
<path d="M33.4425 31.4949L29.0856 18.0121C28.7206 18.0827 28.3438 18.118 27.9552 18.118C27.2133 18.118 26.5068 17.9885 25.8474 17.7412L21.5964 25.9605C22.197 26.5139 22.5856 27.3147 22.5856 28.1978C22.5856 28.3156 22.5738 28.4333 22.562 28.5511L32.3945 32.4841C32.6654 32.0955 33.0304 31.754 33.4425 31.4949Z" fill="#1C75BC"/>
<path d="M19.5595 25.1839C19.7832 25.1839 19.9952 25.2075 20.2072 25.2546L24.4581 17.0353C23.0568 16.0697 22.0795 14.5271 21.8557 12.749H14.0839V12.7608V18.5425L18.6057 25.337C18.9001 25.2428 19.218 25.1839 19.5595 25.1839Z" fill="#2B3990"/>
<path d="M35.2323 31.0008C35.4914 31.0008 35.7504 31.0361 35.9977 31.0832L41.2378 20.1909C40.1073 19.3784 39.3773 18.0596 39.3773 16.5523C39.3773 16.3992 39.389 16.2344 39.4008 16.0813L33.6073 14.4092C33.0067 15.7869 31.9352 16.8938 30.581 17.5297L34.9379 31.0126C35.0321 31.0126 35.1381 31.0008 35.2323 31.0008Z" fill="#1C75BC"/>
<path d="M46.4199 20.2261C46.1726 20.4027 45.9017 20.5558 45.6074 20.6735L46.7731 25.7134C48.0449 25.8312 49.0458 26.9028 49.0458 28.1981C49.0458 28.5984 48.9516 28.987 48.7749 29.3285L52.1545 32.7081C52.5549 32.0604 52.8139 31.3185 52.8139 30.6591V26.6319L46.4199 20.2261Z" fill="#2EA8E0"/>
<path d="M31.7582 34.4746C31.7582 34.298 31.7699 34.1214 31.7935 33.9447L21.9728 30.0117C21.7373 30.3179 21.4547 30.5887 21.1249 30.7889L23.2916 38.2192L27.7898 40.8098L32.2881 36.3116C31.9583 35.7817 31.7582 35.1458 31.7582 34.4746Z" fill="#2EA8E0"/>
<path d="M45.2417 26.0663L44.076 21.0264C44.0053 21.0264 43.9229 21.0264 43.8523 21.0264C43.4401 21.0264 43.028 20.9676 42.6511 20.8616L37.4111 31.7539C37.5524 31.8716 37.6937 32.0012 37.8114 32.1307L44.0878 28.6569C44.0642 28.5038 44.0407 28.3508 44.0407 28.1859C44.0407 27.3027 44.5234 26.502 45.2417 26.0663Z" fill="#2EA8E0"/>
<path d="M51.5651 9.9574L47.5261 13.9964C48.0325 14.7265 48.3386 15.6096 48.3386 16.5634C48.3386 17.5172 48.0442 18.4004 47.5261 19.1305L52.8133 24.4177V12.7717C52.8133 11.8179 52.2952 10.6993 51.5651 9.9574Z" fill="#1C75BC"/>
<path d="M37.0691 37.418C36.5392 37.7477 35.9033 37.9479 35.2321 37.9479C34.5609 37.9479 33.9251 37.7595 33.3952 37.418L29.1913 41.6218L31.4993 42.9524C32.5709 43.5648 34.3137 43.5648 35.3735 42.9524L39.9541 40.303L37.0691 37.418Z" fill="#5DCBEC"/>
<path d="M19.6184 31.2242C19.5949 31.2242 19.5713 31.2242 19.5596 31.2242C17.8874 31.2242 16.5333 29.87 16.5333 28.1979C16.5333 27.4325 16.8159 26.7378 17.2869 26.1961L14.0722 21.3682V30.6472C14.0722 31.8836 14.9436 33.3909 16.0152 34.0032L21.3377 37.0766L19.6184 31.2242Z" fill="#1C75BC"/>
<path d="M47.6678 30.4355C47.3263 30.6003 46.9495 30.7063 46.5373 30.7063C45.8779 30.7063 45.2891 30.459 44.8417 30.0469L38.5653 33.5206C38.6478 33.8268 38.6949 34.1447 38.6949 34.4745C38.6949 35.1457 38.5065 35.7815 38.165 36.3114L41.3561 39.5026L50.8589 34.0152C50.9296 33.9681 51.012 33.921 51.0827 33.8739L47.6678 30.4355Z" fill="#5DCBEC"/>
<path d="M34.1137 11.9713C34.1137 12.2893 34.0901 12.6072 34.043 12.9134L39.8365 14.5855C40.4018 13.4433 41.4262 12.5837 42.6862 12.2422L41.9679 4.27018L35.8564 0.737549L31.841 7.1905C33.2305 8.32094 34.1137 10.0402 34.1137 11.9713Z" fill="#2B3990"/>
<path d="M24.293 7.02577C25.3174 6.26037 26.5892 5.8129 27.9669 5.8129C28.8736 5.8129 29.745 6.01308 30.5222 6.36635L34.4081 0.101805C33.4307 -0.110153 32.2885 0.00760602 31.5113 0.466849L22.821 5.48319L24.293 7.02577Z" fill="#262262"/>
<path d="M50.2583 9.05163L43.6287 5.22461L44.241 12.1015C45.0418 12.1721 45.7954 12.4547 46.4195 12.8904L50.2583 9.05163Z" fill="#2B3990"/>
<path d="M22.5623 28.5632L32.3948 32.4962C32.6774 32.0958 33.0307 31.7543 33.4546 31.507L29.5922 19.5549C26.7072 21.4155 24.1049 23.6528 21.8204 26.2081C22.2915 26.738 22.5858 27.4445 22.5858 28.2217C22.5858 28.3276 22.5741 28.4454 22.5623 28.5632Z" fill="url(#paint0_linear_0_40)"/>
<path d="M35.2329 31.0004C35.492 31.0004 35.751 31.0358 35.9983 31.0829L41.2384 20.1906C40.108 19.3781 39.3779 18.0592 39.3779 16.5519C39.3779 16.3989 39.3897 16.234 39.4014 16.0809L37.6587 15.5746C35.3154 16.3989 33.0662 17.4469 30.9584 18.6833L34.9385 31.0004C35.0327 31.0122 35.1387 31.0004 35.2329 31.0004Z" fill="url(#paint1_linear_0_40)"/>
<path d="M45.6066 20.6852L46.7724 25.7251C48.0441 25.8429 49.0451 26.9144 49.0451 28.2097C49.0451 28.6101 48.9508 28.9987 48.7742 29.3402L52.1538 32.7197C52.5541 32.0721 52.8132 31.3302 52.8132 30.6708V26.6436L46.4191 20.2495C46.1718 20.4026 45.901 20.5557 45.6066 20.6852Z" fill="url(#paint2_linear_0_40)"/>
<path d="M31.7591 34.4739C31.7591 34.2973 31.7709 34.1206 31.7945 33.944L21.9737 30.011C21.7382 30.3171 21.4556 30.588 21.1259 30.7882L23.2926 38.2185L27.7908 40.8091L32.289 36.3109C31.9593 35.781 31.7591 35.1451 31.7591 34.4739Z" fill="url(#paint3_linear_0_40)"/>
<path d="M37.8117 32.154L44.088 28.6802C44.0645 28.5272 44.0409 28.3741 44.0409 28.2092C44.0409 27.3025 44.5237 26.5135 45.242 26.0661L44.0762 21.0262C44.0056 21.0262 43.9232 21.0262 43.8525 21.0262C43.4404 21.0262 43.0282 20.9673 42.6514 20.8613L37.4113 31.7536C37.5526 31.8832 37.6822 32.0127 37.8117 32.154Z" fill="url(#paint4_linear_0_40)"/>
<path d="M48.3392 16.5637C48.3392 17.5176 48.0448 18.4007 47.5267 19.1308L52.8139 24.418V13.5492C51.966 13.4903 51.1182 13.4668 50.2586 13.4668C49.505 13.4668 48.7513 13.4904 48.0095 13.5375L47.5384 14.0085C48.033 14.7268 48.3392 15.6099 48.3392 16.5637Z" fill="url(#paint5_linear_0_40)"/>
<path d="M35.2334 37.9479C34.5622 37.9479 33.9263 37.7595 33.3964 37.418L29.1926 41.6219L31.5006 42.9525C32.5721 43.5648 34.3149 43.5648 35.3747 42.9525L39.9553 40.303L37.0586 37.4062C36.5404 37.7595 35.9046 37.9479 35.2334 37.9479Z" fill="url(#paint6_linear_0_40)"/>
<path d="M19.6185 31.2241C19.595 31.2241 19.5714 31.2241 19.5597 31.2241C19.0769 31.2241 18.6176 31.1063 18.2173 30.9061C17.5343 31.9659 16.8984 33.061 16.3214 34.1797L21.326 37.0765L19.6185 31.2241Z" fill="url(#paint7_linear_0_40)"/>
<path d="M46.5493 30.7063C45.8899 30.7063 45.3011 30.459 44.8536 30.0469L38.5773 33.5206C38.6597 33.8268 38.7068 34.1447 38.7068 34.4745C38.7068 35.1457 38.5184 35.7815 38.1769 36.3114L41.3681 39.5026L50.8709 34.0152C50.9415 33.9681 51.024 33.921 51.0946 33.8739L47.668 30.4472C47.3265 30.6121 46.9497 30.7063 46.5493 30.7063Z" fill="url(#paint8_linear_0_40)"/>
<defs>
<linearGradient id="paint0_linear_0_40" x1="25.1825" y1="22.4244" x2="30.0764" y2="31.3966" gradientUnits="userSpaceOnUse">
<stop stop-color="white" stop-opacity="0.4"/>
<stop offset="1" stop-color="white" stop-opacity="0"/>
</linearGradient>
<linearGradient id="paint1_linear_0_40" x1="33.9478" y1="17.6431" x2="38.8419" y2="26.6155" gradientUnits="userSpaceOnUse">
<stop stop-color="white" stop-opacity="0.4"/>
<stop offset="1" stop-color="white" stop-opacity="0"/>
</linearGradient>
<linearGradient id="paint2_linear_0_40" x1="42.5761" y1="12.9368" x2="47.4701" y2="21.909" gradientUnits="userSpaceOnUse">
<stop stop-color="white" stop-opacity="0.4"/>
<stop offset="1" stop-color="white" stop-opacity="0"/>
</linearGradient>
<linearGradient id="paint3_linear_0_40" x1="21.2633" y1="24.5617" x2="26.1573" y2="33.534" gradientUnits="userSpaceOnUse">
<stop stop-color="white" stop-opacity="0.4"/>
<stop offset="1" stop-color="white" stop-opacity="0"/>
</linearGradient>
<linearGradient id="paint4_linear_0_40" x1="35.5056" y1="16.793" x2="40.3996" y2="25.7653" gradientUnits="userSpaceOnUse">
<stop stop-color="white" stop-opacity="0.4"/>
<stop offset="1" stop-color="white" stop-opacity="0"/>
</linearGradient>
<linearGradient id="paint5_linear_0_40" x1="47.0039" y1="10.5219" x2="51.8978" y2="19.4942" gradientUnits="userSpaceOnUse">
<stop stop-color="white" stop-opacity="0.4"/>
<stop offset="1" stop-color="white" stop-opacity="0"/>
</linearGradient>
<linearGradient id="paint6_linear_0_40" x1="24.6286" y1="22.7264" x2="29.5226" y2="31.6988" gradientUnits="userSpaceOnUse">
<stop stop-color="white" stop-opacity="0.4"/>
<stop offset="1" stop-color="white" stop-opacity="0"/>
</linearGradient>
<linearGradient id="paint7_linear_0_40" x1="15.3" y1="27.8147" x2="20.1939" y2="36.7868" gradientUnits="userSpaceOnUse">
<stop stop-color="white" stop-opacity="0.4"/>
<stop offset="1" stop-color="white" stop-opacity="0"/>
</linearGradient>
<linearGradient id="paint8_linear_0_40" x1="34.854" y1="17.1493" x2="39.748" y2="26.1216" gradientUnits="userSpaceOnUse">
<stop stop-color="white" stop-opacity="0.4"/>
<stop offset="1" stop-color="white" stop-opacity="0"/>
</linearGradient>
</defs>
</svg>
