<svg width="106" height="27" viewBox="0 0 106 27" fill="none" xmlns="http://www.w3.org/2000/svg">
<path d="M36.7032 17.0762V18.7264H31V10.1848H32.9275V17.0762H36.7032Z" fill="#247CC0"/>
<path d="M37.9442 10.1848H39.8717V18.7264H37.9442V10.1848Z" fill="#247CC0"/>
<path d="M47.5684 18.7264C47.0139 17.7495 46.4198 16.7858 45.7861 15.822C45.1392 14.8715 44.4659 13.9738 43.7398 13.1156V18.7132H41.8387V10.1848H43.4098C43.687 10.4621 43.9775 10.7921 44.3075 11.1882C44.6375 11.5842 44.9676 12.0067 45.3109 12.4555C45.6541 12.9044 45.9973 13.3665 46.3274 13.8549C46.6706 14.3302 46.9875 14.7923 47.2779 15.2411V10.1848H49.1922V18.7264H47.5684Z" fill="#247CC0"/>
<path d="M56.2024 18.7264C56.0308 18.4492 55.8196 18.1456 55.5952 17.8287C55.3575 17.5119 55.1067 17.1818 54.8294 16.8518C54.5522 16.5217 54.275 16.2049 53.9713 15.9144C53.6809 15.6108 53.3772 15.3468 53.0868 15.1223V18.7396H51.1593V10.1848H53.0868V13.3929C53.5753 12.878 54.0901 12.3235 54.5918 11.769C55.1067 11.2014 55.5687 10.6733 56.0044 10.1848H58.2883C57.7074 10.8713 57.1266 11.5446 56.5325 12.1783C55.9384 12.812 55.3179 13.4589 54.671 14.1058C55.3575 14.6735 56.0176 15.3468 56.6513 16.1389C57.285 16.9178 57.8923 17.7891 58.4864 18.7264H56.2024Z" fill="#247CC0"/>
<path d="M59.5957 18.7267V10.1851H65.3649V11.7957H61.5232V13.4723H64.9425V15.0566H61.5232V17.1161H65.6554V18.7267H59.5957Z" fill="#247CC0"/>
<path d="M74.5531 14.449C74.5531 15.1883 74.4343 15.8352 74.2099 16.3897C73.9854 16.9442 73.6554 17.3931 73.2329 17.7627C72.8105 18.1192 72.2956 18.3964 71.6883 18.5812C71.081 18.7661 70.3945 18.8585 69.642 18.8585C69.2987 18.8585 68.8895 18.8453 68.4274 18.8189C67.9654 18.7925 67.5165 18.7265 67.0676 18.634V10.3036C67.5165 10.2244 67.9786 10.1716 68.4538 10.132C68.9291 10.1056 69.3516 10.0924 69.6948 10.0924C70.4209 10.0924 71.0942 10.1716 71.6883 10.3432C72.2824 10.5017 72.7973 10.7657 73.2197 11.1222C73.6422 11.4786 73.9722 11.9275 74.2099 12.482C74.4343 13.01 74.5531 13.6701 74.5531 14.449ZM68.9951 17.1554C69.0875 17.1686 69.1931 17.1686 69.312 17.1686C69.4308 17.1686 69.576 17.1686 69.7344 17.1686C70.6982 17.1686 71.4111 16.931 71.8731 16.4425C72.3352 15.9541 72.5728 15.294 72.5728 14.4358C72.5728 13.5381 72.3484 12.8648 71.9127 12.4027C71.4639 11.9407 70.7642 11.7162 69.8004 11.7162C69.6684 11.7162 69.5364 11.7162 69.3912 11.7162C69.246 11.7162 69.1139 11.7294 68.9951 11.7426V17.1554Z" fill="#247CC0"/>
<path d="M82.2102 10.1848V11.8219H79.6358V18.7264H77.7083V11.8219H75.1339V10.1848H82.2102Z" fill="#247CC0"/>
<path d="M83.4511 18.7264V10.1848H89.2204V11.7954H85.3786V13.4721H88.7979V15.0563H85.3786V17.1158H89.5108V18.7264H83.4511Z" fill="#247CC0"/>
<path d="M94.8184 18.8981C93.4322 18.8981 92.3761 18.5152 91.6368 17.7363C90.9107 16.9574 90.541 15.8616 90.541 14.449C90.541 13.7361 90.6466 13.1157 90.8711 12.5612C91.0955 12.0067 91.3991 11.5314 91.782 11.1618C92.1649 10.7789 92.6269 10.4885 93.1682 10.2904C93.6963 10.0924 94.2772 10 94.9108 10C95.2673 10 95.5973 10.0264 95.901 10.0792C96.1914 10.132 96.4555 10.198 96.6799 10.264C96.9043 10.33 97.0892 10.4093 97.2344 10.4753C97.3796 10.5545 97.4852 10.6073 97.5512 10.6469L96.9967 12.2047C96.7327 12.0595 96.4291 11.9407 96.0726 11.8483C95.7294 11.7559 95.3201 11.703 94.8844 11.703C94.594 11.703 94.3036 11.7559 94.0131 11.8483C93.7359 11.9407 93.485 12.0991 93.2606 12.3235C93.0362 12.548 92.8645 12.8252 92.7325 13.1685C92.6005 13.5117 92.5345 13.9342 92.5345 14.4226C92.5345 14.8187 92.5741 15.1884 92.6665 15.5316C92.7589 15.8748 92.891 16.1653 93.089 16.4161C93.287 16.667 93.5378 16.8518 93.8415 16.997C94.1583 17.1422 94.528 17.2082 94.9769 17.2082C95.2541 17.2082 95.5049 17.195 95.7294 17.1554C95.9538 17.129 96.1518 17.0894 96.3235 17.0366C96.4951 16.997 96.6535 16.9442 96.7855 16.8782C96.9175 16.8254 97.0364 16.7726 97.142 16.7198L97.67 18.2644C97.3928 18.4228 97.01 18.5812 96.5215 18.7133C96.033 18.8321 95.4653 18.8981 94.8184 18.8981Z" fill="#247CC0"/>
<path d="M104.072 10.1851H106V18.7267H104.072V15.0962H100.838V18.7267H98.9102V10.1851H100.838V13.4591H104.072V10.1851Z" fill="#247CC0"/>
<path d="M4.59431 7.44357C4.67785 6.76137 4.95629 6.13487 5.367 5.62671L4.32979 4.54773L1.13463 6.39243C0.765685 6.60823 0.431552 7.00501 0.222717 7.44357H4.59431Z" fill="#262262"/>
<path d="M11.4511 19.4515L8.87546 11.481C8.65967 11.5228 8.43691 11.5437 8.2072 11.5437C7.76865 11.5437 7.35097 11.4671 6.96115 11.3209L4.44818 16.1798C4.8032 16.507 5.03292 16.9803 5.03292 17.5024C5.03292 17.572 5.02595 17.6416 5.01899 17.7113L10.8315 20.0363C10.9916 19.8066 11.2074 19.6047 11.4511 19.4515Z" fill="#1C75BC"/>
<path d="M3.24395 15.7203C3.37621 15.7203 3.50151 15.7343 3.62681 15.7621L6.13978 10.9032C5.31141 10.3324 4.73363 9.42052 4.60137 8.36938H0.00701904V8.37634V11.7943L2.6801 15.8108C2.85413 15.7552 3.04208 15.7203 3.24395 15.7203Z" fill="#2B3990"/>
<path d="M12.5094 19.1593C12.6626 19.1593 12.8157 19.1802 12.9619 19.2081L16.0596 12.769C15.3913 12.2887 14.9597 11.509 14.9597 10.618C14.9597 10.5275 14.9667 10.4301 14.9737 10.3396L11.5488 9.35107C11.1938 10.1655 10.5603 10.8199 9.75977 11.1958L12.3354 19.1663C12.3911 19.1663 12.4537 19.1593 12.5094 19.1593Z" fill="#1C75BC"/>
<path d="M19.1222 12.7898C18.976 12.8942 18.8159 12.9847 18.6418 13.0543L19.331 16.0337C20.0828 16.1033 20.6745 16.7368 20.6745 17.5025C20.6745 17.7392 20.6188 17.9689 20.5144 18.1708L22.5122 20.1686C22.7489 19.7857 22.9021 19.3472 22.9021 18.9574V16.5767L19.1222 12.7898Z" fill="#2EA8E0"/>
<path d="M10.4556 21.2127C10.4556 21.1083 10.4626 21.0039 10.4765 20.8995L4.67094 18.5745C4.53171 18.7555 4.36465 18.9156 4.16974 19.0339L5.45059 23.4264L8.10974 24.9578L10.7689 22.2987C10.574 21.9854 10.4556 21.6095 10.4556 21.2127Z" fill="#2EA8E0"/>
<path d="M18.4262 16.2425L17.737 13.2631C17.6952 13.2631 17.6465 13.2631 17.6047 13.2631C17.3611 13.2631 17.1175 13.2283 16.8947 13.1656L13.797 19.6047C13.8805 19.6743 13.9641 19.7509 14.0337 19.8275L17.744 17.7739C17.73 17.6834 17.7161 17.5929 17.7161 17.4955C17.7161 16.9734 18.0015 16.5 18.4262 16.2425Z" fill="#2EA8E0"/>
<path d="M22.1641 6.7196L19.7764 9.10728C20.0758 9.53887 20.2567 10.061 20.2567 10.6248C20.2567 11.1887 20.0827 11.7107 19.7764 12.1423L22.902 15.2679V8.38332C22.902 7.81947 22.5957 7.15816 22.1641 6.7196Z" fill="#1C75BC"/>
<path d="M13.5955 22.9531C13.2822 23.148 12.9063 23.2664 12.5095 23.2664C12.1128 23.2664 11.7369 23.155 11.4236 22.9531L8.93848 25.4383L10.3029 26.2249C10.9363 26.5868 11.9666 26.5868 12.5931 26.2249L15.301 24.6586L13.5955 22.9531Z" fill="#5DCBEC"/>
<path d="M3.2787 19.2914C3.26477 19.2914 3.25085 19.2914 3.24389 19.2914C2.25541 19.2914 1.45488 18.4909 1.45488 17.5024C1.45488 17.05 1.62195 16.6392 1.90039 16.319L0 13.465V18.9503C0 19.6813 0.515124 20.5723 1.14859 20.9343L4.29502 22.7511L3.2787 19.2914Z" fill="#1C75BC"/>
<path d="M19.8608 18.8249C19.6589 18.9224 19.4362 18.985 19.1925 18.985C18.8027 18.985 18.4547 18.8389 18.1901 18.5952L14.4798 20.6488C14.5286 20.8297 14.5564 21.0177 14.5564 21.2126C14.5564 21.6094 14.445 21.9853 14.2432 22.2985L16.1296 24.185L21.7473 20.9411C21.789 20.9133 21.8378 20.8854 21.8795 20.8576L19.8608 18.8249Z" fill="#5DCBEC"/>
<path d="M11.8476 7.91009C11.8476 8.09804 11.8337 8.28599 11.8058 8.46698L15.2307 9.45546C15.5648 8.78023 16.1705 8.27207 16.9153 8.0702L16.4907 3.35751L12.8778 1.26917L10.5041 5.08387C11.3255 5.75214 11.8476 6.76846 11.8476 7.91009Z" fill="#2B3990"/>
<path d="M6.0422 4.98634C6.64782 4.53387 7.39962 4.26934 8.21407 4.26934C8.75008 4.26934 9.2652 4.38768 9.72464 4.59652L12.0218 0.893191C11.444 0.76789 10.7688 0.837504 10.3094 1.10899L5.17206 4.07443L6.0422 4.98634Z" fill="#262262"/>
<path d="M21.3917 6.18363L17.4725 3.92126L17.8345 7.98657C18.3079 8.02834 18.7534 8.19541 19.1223 8.45297L21.3917 6.18363Z" fill="#2B3990"/>
<path d="M5.0185 17.7181L10.8311 20.0431C10.9981 19.8064 11.207 19.6046 11.4576 19.4584L9.17431 12.3928C7.46883 13.4927 5.93042 14.8153 4.57996 16.3259C4.8584 16.6391 5.03243 17.0568 5.03243 17.5162C5.03243 17.5789 5.02546 17.6485 5.0185 17.7181Z" fill="url(#paint0_linear_0_264)"/>
<path d="M12.5093 19.1591C12.6625 19.1591 12.8156 19.18 12.9618 19.2079L16.0595 12.7688C15.3912 12.2885 14.9596 11.5088 14.9596 10.6178C14.9596 10.5273 14.9666 10.4299 14.9736 10.3394L13.9433 10.04C12.558 10.5273 11.2285 11.1469 9.98242 11.8778L12.3353 19.1591C12.391 19.1661 12.4536 19.1591 12.5093 19.1591Z" fill="url(#paint1_linear_0_264)"/>
<path d="M18.6416 13.0613L19.3307 16.0406C20.0826 16.1103 20.6743 16.7437 20.6743 17.5094C20.6743 17.7461 20.6186 17.9758 20.5141 18.1777L22.512 20.1756C22.7487 19.7927 22.9018 19.3541 22.9018 18.9643V16.5836L19.1219 12.8037C18.9757 12.8942 18.8156 12.9847 18.6416 13.0613Z" fill="url(#paint2_linear_0_264)"/>
<path d="M10.4549 21.2125C10.4549 21.1081 10.4618 21.0037 10.4757 20.8992L4.67014 18.5742C4.53092 18.7552 4.36386 18.9153 4.16895 19.0337L5.4498 23.4261L8.10895 24.9576L10.7681 22.2984C10.5732 21.9852 10.4549 21.6093 10.4549 21.2125Z" fill="url(#paint3_linear_0_264)"/>
<path d="M14.0336 19.8413L17.7438 17.7877C17.7299 17.6972 17.716 17.6067 17.716 17.5093C17.716 16.9733 18.0014 16.5069 18.426 16.2424L17.7369 13.263C17.6951 13.263 17.6464 13.263 17.6046 13.263C17.361 13.263 17.1173 13.2282 16.8946 13.1655L13.7969 19.6046C13.8804 19.6812 13.957 19.7577 14.0336 19.8413Z" fill="url(#paint4_linear_0_264)"/>
<path d="M20.2567 10.6247C20.2567 11.1886 20.0827 11.7107 19.7764 12.1423L22.9019 15.2678V8.84267C22.4007 8.80787 21.8995 8.79395 21.3914 8.79395C20.9458 8.79395 20.5003 8.80787 20.0618 8.83571L19.7833 9.11416C20.0757 9.53879 20.2567 10.0609 20.2567 10.6247Z" fill="url(#paint5_linear_0_264)"/>
<path d="M12.5087 23.2661C12.1119 23.2661 11.736 23.1548 11.4227 22.9529L8.93762 25.438L10.302 26.2246C10.9355 26.5866 11.9657 26.5866 12.5922 26.2246L15.3001 24.6584L13.5877 22.9459C13.2814 23.1548 12.9055 23.2661 12.5087 23.2661Z" fill="url(#paint6_linear_0_264)"/>
<path d="M3.27822 19.2913C3.2643 19.2913 3.25038 19.2913 3.24342 19.2913C2.95801 19.2913 2.68652 19.2217 2.44984 19.1034C2.0461 19.7299 1.6702 20.3773 1.3291 21.0386L4.28759 22.751L3.27822 19.2913Z" fill="url(#paint7_linear_0_264)"/>
<path d="M19.1983 18.985C18.8085 18.985 18.4605 18.8389 18.1959 18.5952L14.4856 20.6488C14.5344 20.8297 14.5622 21.0177 14.5622 21.2126C14.5622 21.6094 14.4508 21.9853 14.249 22.2985L16.1354 24.185L21.7531 20.9411C21.7948 20.9133 21.8436 20.8854 21.8853 20.8576L19.8596 18.8319C19.6578 18.9294 19.435 18.985 19.1983 18.985Z" fill="url(#paint8_linear_0_264)"/>
<defs>
<linearGradient id="paint0_linear_0_264" x1="6.56746" y1="14.0891" x2="9.46055" y2="19.3931" gradientUnits="userSpaceOnUse">
<stop stop-color="white" stop-opacity="0.4"/>
<stop offset="1" stop-color="white" stop-opacity="0"/>
</linearGradient>
<linearGradient id="paint1_linear_0_264" x1="11.7496" y1="11.2629" x2="14.6428" y2="16.5669" gradientUnits="userSpaceOnUse">
<stop stop-color="white" stop-opacity="0.4"/>
<stop offset="1" stop-color="white" stop-opacity="0"/>
</linearGradient>
<linearGradient id="paint2_linear_0_264" x1="16.8501" y1="8.48075" x2="19.7432" y2="13.7848" gradientUnits="userSpaceOnUse">
<stop stop-color="white" stop-opacity="0.4"/>
<stop offset="1" stop-color="white" stop-opacity="0"/>
</linearGradient>
<linearGradient id="paint3_linear_0_264" x1="4.25017" y1="15.3528" x2="7.14329" y2="20.6569" gradientUnits="userSpaceOnUse">
<stop stop-color="white" stop-opacity="0.4"/>
<stop offset="1" stop-color="white" stop-opacity="0"/>
</linearGradient>
<linearGradient id="paint4_linear_0_264" x1="12.6703" y1="10.7605" x2="15.5634" y2="16.0645" gradientUnits="userSpaceOnUse">
<stop stop-color="white" stop-opacity="0.4"/>
<stop offset="1" stop-color="white" stop-opacity="0"/>
</linearGradient>
<linearGradient id="paint5_linear_0_264" x1="19.4673" y1="7.05307" x2="22.3604" y2="12.3571" gradientUnits="userSpaceOnUse">
<stop stop-color="white" stop-opacity="0.4"/>
<stop offset="1" stop-color="white" stop-opacity="0"/>
</linearGradient>
<linearGradient id="paint6_linear_0_264" x1="6.2396" y1="14.2678" x2="9.13275" y2="19.5719" gradientUnits="userSpaceOnUse">
<stop stop-color="white" stop-opacity="0.4"/>
<stop offset="1" stop-color="white" stop-opacity="0"/>
</linearGradient>
<linearGradient id="paint7_linear_0_264" x1="0.725285" y1="17.2759" x2="3.61834" y2="22.5798" gradientUnits="userSpaceOnUse">
<stop stop-color="white" stop-opacity="0.4"/>
<stop offset="1" stop-color="white" stop-opacity="0"/>
</linearGradient>
<linearGradient id="paint8_linear_0_264" x1="12.2846" y1="10.9707" x2="15.1777" y2="16.2748" gradientUnits="userSpaceOnUse">
<stop stop-color="white" stop-opacity="0.4"/>
<stop offset="1" stop-color="white" stop-opacity="0"/>
</linearGradient>
</defs>
</svg>
